<?xml version="1.0" encoding="utf-8"?>
<!-- Generator: Adobe Illustrator 24.0.1, SVG Export Plug-In . SVG Version: 6.00 Build 0)  -->
<svg version="1.1" id="Layer_2_1_" xmlns="http://www.w3.org/2000/svg" xmlns:xlink="http://www.w3.org/1999/xlink" x="0px" y="0px"
	 viewBox="0 0 1366 950" style="enable-background:new 0 0 1366 950;" xml:space="preserve">
<style type="text/css">
	.st0{fill:url(#Path_8_1_);}
	.st1{opacity:9.000000e-02;fill:url(#Path_9_1_);enable-background:new    ;}
	.st2{opacity:0.17;fill:url(#Path_10_1_);enable-background:new    ;}
</style>
<g id="Layer_1">
	<linearGradient id="Path_8_1_" gradientUnits="userSpaceOnUse" x1="683" y1="950" x2="683" y2="-9.094947e-13">
		<stop  offset="0" style="stop-color:#EDAD00"/>
		<stop  offset="1" style="stop-color:#ED5B00"/>
	</linearGradient>
	<path id="Path_8" class="st0" d="M0,337.5V950l927-104.4l175-19.7c0,0,264-51.4,264-213.5V0L424,106l-160,18
		C264,124.1,0,175.5,0,337.5z"/>
	<linearGradient id="Path_9_1_" gradientUnits="userSpaceOnUse" x1="1146.5" y1="856.63" x2="1146.5" y2="424">
		<stop  offset="0" style="stop-color:#EDAD00"/>
		<stop  offset="1" style="stop-color:#ED5B00"/>
	</linearGradient>
	<path id="Path_9" class="st1" d="M927,424v432.6l175-17.6c0,0,264-46,264-191V424H927z"/>
	<linearGradient id="Path_10_1_" gradientUnits="userSpaceOnUse" x1="212" y1="509" x2="212" y2="94.88">
		<stop  offset="0" style="stop-color:#EDAD00"/>
		<stop  offset="1" style="stop-color:#ED5B00"/>
	</linearGradient>
	<path id="Path_10" class="st2" d="M0,302v207h424V94.9L264,111C264,111,0,157,0,302z"/>
</g>
</svg>
