<?xml version="1.0" encoding="utf-8"?>
<!-- Generator: Adobe Illustrator 24.0.1, SVG Export Plug-In . SVG Version: 6.00 Build 0)  -->
<svg version="1.1" id="object3" xmlns="http://www.w3.org/2000/svg" xmlns:xlink="http://www.w3.org/1999/xlink" x="0px" y="0px"
	 viewBox="0 0 1366 850" style="enable-background:new 0 0 1366 850;" xml:space="preserve">
<style type="text/css">
	.st0{fill:url(#Path_8_1_);}
	.st1{opacity:9.000000e-02;fill:url(#Path_9_1_);enable-background:new    ;}
	.st2{opacity:0.17;fill:url(#Path_10_1_);enable-background:new    ;}
</style>
<g id="Layer_1">
	<linearGradient id="Path_8_1_" gradientUnits="userSpaceOnUse" x1="0" y1="425" x2="1366" y2="425">
		<stop  offset="0" style="stop-color:#6623CC"/>
		<stop  offset="0.9735" style="stop-color:#483ACE"/>
	</linearGradient>
	<path id="Path_8" class="st0" d="M0,302v548l927-93.4l175-17.6c0,0,264-46,264-191V0L424,94.9L264,111C264,111,0,157,0,302z"/>
	<linearGradient id="Path_9_1_" gradientUnits="userSpaceOnUse" x1="927" y1="540.315" x2="1366" y2="540.315">
		<stop  offset="0" style="stop-color:#6623CC"/>
		<stop  offset="0.9735" style="stop-color:#483ACE"/>
	</linearGradient>
	<path id="Path_9" class="st1" d="M927,324v432.6l175-17.6c0,0,264-46,264-191V324H927z"/>
	<linearGradient id="Path_10_1_" gradientUnits="userSpaceOnUse" x1="0" y1="301.94" x2="424" y2="301.94">
		<stop  offset="0" style="stop-color:#6623CC"/>
		<stop  offset="0.9735" style="stop-color:#483ACE"/>
	</linearGradient>
	<path id="Path_10" class="st2" d="M0,302v207h424V94.9L264,111C264,111,0,157,0,302z"/>
</g>
</svg>
